<svg width="16" height="16" viewBox="0 0 16 16" fill="none" xmlns="http://www.w3.org/2000/svg">
    <path d="M8 16A8 8 0 1 0 8 0a8 8 0 0 0 0 16z" fill="#92ADB2"/>
    <path d="M5.5 5.213c0-.455.23-.89.64-1.211.41-.322.966-.502 1.546-.502h.625c.58 0 1.136.18 1.546.502.41.32.64.756.64 1.21.023.371-.086.739-.312 1.048a1.86 1.86 0 0 1-.937.665c-.383.165-.712.476-.938.888C8.085 8.225 7.998 9 7.998 9.5M8 12.5v.1" stroke="#fff" stroke-width="1.5" stroke-linecap="square" stroke-linejoin="round"/>
</svg>
