<svg width="20" height="20" viewBox="0 0 20 20" fill="none" xmlns="http://www.w3.org/2000/svg">
    <circle cx="8" cy="5" r="4" stroke="#0E7975" stroke-width="2"/>
    <path d="M6 12h4a5 5 0 0 1 5 5v2H1v-2a5 5 0 0 1 5-5z" stroke="#0E7975" stroke-width="2"/>
    <mask id="a" fill="#fff">
        <path fill-rule="evenodd" clip-rule="evenodd" d="M15.887 9h-2.774v1.323a4.397 4.397 0 0 0-1.556.906l-1.17-.67L9 12.941l1.188.68a4.424 4.424 0 0 0 0 1.759L9 16.06l1.387 2.38 1.17-.669c.446.401.974.713 1.556.906V20h2.774v-1.323a4.394 4.394 0 0 0 1.555-.906l1.17.67L20 16.059l-1.188-.68a4.425 4.425 0 0 0 0-1.758L20 12.94l-1.387-2.382-1.17.67a4.397 4.397 0 0 0-1.556-.906V9zM14.5 17a2.5 2.5 0 1 0 0-5 2.5 2.5 0 0 0 0 5z"/>
    </mask>
    <path d="M13.113 9V7h-2v2h2zm2.774 0h2V7h-2v2zm-2.774 1.323.63 1.898 1.37-.454v-1.444h-2zm-1.556.906-.993 1.736 1.256.718 1.075-.968-1.338-1.486zm-1.17-.67.994-1.736-1.723-.985-.999 1.714 1.728 1.007zM9 12.941l-1.728-1.007-1.015 1.742 1.75 1L9 12.942zm1.188.68 1.96.397.287-1.416-1.254-.717-.993 1.736zm0 1.759.993 1.736 1.254-.718-.287-1.416-1.96.398zM9 16.06l-.993-1.737-1.75 1.001 1.015 1.742L9 16.059zm1.387 2.38L8.66 19.449l1 1.714 1.722-.985-.994-1.736zm1.17-.669 1.338-1.486-1.075-.968-1.256.718.993 1.736zm1.556.906h2v-1.444l-1.37-.454-.63 1.898zm0 1.323h-2v2h2v-2zm2.774 0v2h2v-2h-2zm0-1.323-.63-1.898-1.37.454v1.444h2zm1.555-.906.994-1.736-1.256-.718-1.075.968 1.337 1.486zm1.17.67-.993 1.736 1.723.985.999-1.714-1.729-1.007zM20 16.059l1.728 1.007 1.015-1.742-1.75-1L20 16.058zm-1.188-.68-1.96-.397-.287 1.416 1.254.718.993-1.736zm0-1.758-.993-1.736-1.254.717.287 1.416 1.96-.398zM20 12.94l.993 1.736 1.75-1.001-1.015-1.742L20 12.941zm-1.387-2.382 1.728-1.007-1-1.714-1.722.985.994 1.736zm-1.17.67-1.338 1.486 1.075.968 1.256-.718-.993-1.736zm-1.556-.906h-2v1.444l1.37.454.63-1.898zM13.113 11h2.774V7h-2.774v4zm2-.677V9h-4v1.323h4zm-2.218 2.392c.245-.22.533-.39.848-.494l-1.26-3.796a6.397 6.397 0 0 0-2.264 1.317l2.676 2.973zm-3.5-.42 1.17.67 1.986-3.472-1.17-.67-1.987 3.472zm1.333 1.653 1.388-2.382-3.457-2.014-1.387 2.382 3.456 2.014zm.453-2.063-1.188-.68-1.986 3.472 1.188.68 1.986-3.472zM12.1 14.5c0-.167.017-.328.048-.482l-3.92-.795A6.42 6.42 0 0 0 8.1 14.5h4zm.048.482a2.424 2.424 0 0 1-.048-.482h-4c0 .435.044.863.128 1.277l3.92-.795zm-2.155 2.813 1.188-.68-1.986-3.471-1.188.68 1.986 3.471zm2.123-.361-1.388-2.382-3.456 2.014 1.387 2.382 3.457-2.014zm-1.552-1.399-1.17.67 1.987 3.472 1.17-.67-1.987-3.472zm3.179.744a2.395 2.395 0 0 1-.848-.494l-2.675 2.973a6.396 6.396 0 0 0 2.262 1.317l1.26-3.796zM15.113 20v-1.323h-4V20h4zm.774-2h-2.774v4h2.774v-4zm-2 .677V20h4v-1.323h-4zm2.218-2.392c-.245.22-.533.39-.848.494l1.26 3.796a6.394 6.394 0 0 0 2.264-1.317l-2.676-2.973zm3.5.42-1.17-.67-1.986 3.472 1.17.67 1.987-3.472zm-1.333-1.652-1.388 2.381 3.457 2.014 1.387-2.382-3.456-2.013zm-.453 2.063 1.188.68 1.986-3.473-1.188-.68-1.986 3.473zM16.9 14.5c0 .167-.017.328-.048.482l3.92.795c.084-.414.128-.841.128-1.277h-4zm-.048-.482c.031.154.048.315.048.482h4c0-.435-.044-.863-.128-1.277l-3.92.795zm2.155-2.813-1.188.68 1.986 3.471 1.188-.68-1.986-3.471zm-2.123.361 1.388 2.382 3.456-2.014-1.387-2.382-3.457 2.014zm1.552 1.399 1.17-.67-1.987-3.472-1.17.67 1.987 3.472zm-3.179-.744c.315.105.603.274.848.494l2.676-2.973a6.396 6.396 0 0 0-2.263-1.317l-1.26 3.796zM13.887 9v1.323h4V9h-4zM15 14.5a.5.5 0 0 1-.5.5v4a4.5 4.5 0 0 0 4.5-4.5h-4zm-.5-.5a.5.5 0 0 1 .5.5h4a4.5 4.5 0 0 0-4.5-4.5v4zm-.5.5a.5.5 0 0 1 .5-.5v-4a4.5 4.5 0 0 0-4.5 4.5h4zm.5.5a.5.5 0 0 1-.5-.5h-4a4.5 4.5 0 0 0 4.5 4.5v-4z" fill="#2CBBB6" mask="url(#a)"/>
    <circle cx="14.5" cy="14.5" r="2.5" fill="#fff"/>
</svg>
