<svg width="32" height="32" viewBox="0 0 32 32" fill="none" xmlns="http://www.w3.org/2000/svg">
    <ellipse cx="13.552" cy="10.478" rx="6.606" ry="6.479" fill="#106492"/>
    <path d="M14.956 17.66c-.7.097-1.41.114-2.115.05-3.162-.29-7.085.02-8.771 2.71l-.799 1.274c-1.307 2.086-.902 4.871 1.35 5.867 5.61 2.479 13.51 2.52 19.044.125 2.335-1.01 2.626-3.92 1.124-5.974l-1.38-1.888c-1.79-2.446-5.451-2.58-8.453-2.164z" fill="#166F9F"/>
    <path fill-rule="evenodd" clip-rule="evenodd" d="M17.593 29.304a9.213 9.213 0 0 0 1.265-4.67c0-2.789-1.24-5.294-3.209-7.015-.227.024-.452.052-.673.082-.7.098-1.41.114-2.114.05-3.163-.29-7.085.02-8.772 2.71l-.798 1.274c-1.308 2.086-.902 4.872 1.35 5.867 3.755 1.66 8.539 2.227 12.95 1.702z" fill="url(#a)"/>
    <path d="M6.946 10.478c0 3.578 2.958 6.478 6.606 6.478 3.649 0 6.607-2.9 6.607-6.478S17.2 3.999 13.552 3.999c-3.648 0-6.606 2.9-6.606 6.479z" fill="url(#b)"/>
    <path fill-rule="evenodd" clip-rule="evenodd" d="M20.168 8h.027a1.2 1.2 0 0 1 0 2.4h-13.1a1.2 1.2 0 0 1-.14-2.393C6.996 4.462 9.938 1.6 13.563 1.6c3.622 0 6.563 2.858 6.606 6.4z" fill="url(#c)"/>
    <rect x="12.666" y="1.599" width="1.632" height="2.4" rx=".816" fill="#005F96"/>
    <ellipse cx="13.482" cy="4.799" rx="1.632" ry="1.6" fill="#005F96"/>
    <path fill-rule="evenodd" clip-rule="evenodd" d="m18.883 24.847-1.51-2.484a.355.355 0 0 1 .075-.468l1.599-1.188-.004-.033c-.024-.228-.047-.446-.047-.675 0-.24.025-.468.063-.708l-1.598-1.188c-.139-.12-.19-.312-.088-.468l1.51-2.484c.1-.156.29-.216.466-.156l1.875.72a5.37 5.37 0 0 1 1.271-.696l.277-1.908a.384.384 0 0 1 .378-.312h3.02c.189 0 .34.132.378.3l.277 1.908c.465.18.88.42 1.27.708l1.876-.72c.176-.06.365 0 .466.156l1.51 2.484c.1.156.05.36-.088.468l-1.599 1.188.004.033c.024.228.047.446.047.675 0 .228-.013.468-.05.696l1.598 1.188c.138.12.189.312.088.468l-1.51 2.484c-.1.156-.29.216-.466.156l-1.875-.72c-.39.288-.818.528-1.271.708l-.277 1.908a.384.384 0 0 1-.378.312h-3.02a.386.386 0 0 1-.378-.3l-.277-1.908a5.408 5.408 0 0 1-1.271-.708l-1.875.72a.394.394 0 0 1-.466-.156zm5.775-2.276c1.738 0 3.146-1.313 3.146-2.932s-1.408-2.931-3.146-2.931-3.147 1.312-3.147 2.931c0 1.62 1.41 2.932 3.147 2.932z" fill="url(#d)"/>
    <defs>
        <linearGradient id="a" x1="1.191" y1="30.236" x2="13.825" y2="14.554" gradientUnits="userSpaceOnUse">
            <stop stop-color="#00B4BF" stop-opacity=".71"/>
            <stop offset="1" stop-color="#00B4BF" stop-opacity="0"/>
        </linearGradient>
        <linearGradient id="b" x1="21.26" y1="17.766" x2="7.198" y2="4.805" gradientUnits="userSpaceOnUse">
            <stop stop-color="#00B4BF" stop-opacity=".71"/>
            <stop offset="1" stop-color="#00B4BF" stop-opacity="0"/>
        </linearGradient>
        <linearGradient id="c" x1="8.541" y1="3.13" x2="14.322" y2="12.874" gradientUnits="userSpaceOnUse">
            <stop stop-color="#F3FDFF"/>
            <stop offset="1" stop-color="#F3FDFF" stop-opacity=".48"/>
        </linearGradient>
        <linearGradient id="d" x1="21.249" y1="14.599" x2="34.918" y2="26.434" gradientUnits="userSpaceOnUse">
            <stop stop-color="#fff" stop-opacity=".81"/>
            <stop offset="1" stop-color="#186C8E"/>
        </linearGradient>
    </defs>
</svg>
