<svg width="162" height="23" viewBox="0 0 162 23" fill="none" xmlns="http://www.w3.org/2000/svg">
    <path d="M4.42 18.917c3.507 0 6.174-1.474 6.174-4.929 0-2.899-1.562-4.083-3.868-5.097l-1.922-.846c-1.2-.531-1.753-1.16-1.753-2.32 0-1.255 1.345-1.787 3.675-1.787 2.282 0 2.859-.048 2.859-.773V.99c-.649.386-1.682.386-3.291.386C2.69 1.377.072 2.754.072 5.726c0 2.32 1.105 3.696 3.171 4.614l2.138.943c1.225.531 2.234 1.377 2.234 2.705 0 1.595-1.225 2.368-3.05 2.368-1.37 0-3.412-.507-4.565-1.208v2.03c0 .362.24.652.48.82.77.532 2.69.919 3.94.919zM15.97 18.917c1.008 0 2.497-.459 3.146-1.208.312.822 1.177 1.208 2.042 1.208.865 0 1.585-.362 1.585-1.015V16.43a1.656 1.656 0 0 1-.48.072c-.336 0-.48-.17-.48-.58v-6.04c0-3.479-2.163-4.252-4.637-4.252-1.73 0-3.147.266-4.324.653v1.836c0 .41.289.483.649.386.816-.241 2.066-.459 3.05-.459 1.706 0 2.499.387 2.499 2.175v.507h-.865c-3.195 0-6.318.676-6.318 4.397 0 2.633 1.874 3.793 4.132 3.793zm.648-2.44c-1.25 0-2.042-.41-2.042-1.474 0-1.329.696-2.223 3.795-2.223h.649v2.948c-.6.459-1.586.749-2.402.749zM25.612 18.651h2.162c.432 0 .672-.217.672-.7V8.335h.024c2.235 0 3.172-.097 3.172-.966V5.557c-.745.338-2.187.265-3.1.265h-.096V4.808c0-1.401.457-1.957 1.346-1.957 1.657 0 2.018-.145 2.018-.797V0c-.433.242-1.057.338-2.715.338-1.994 0-3.483 1.015-3.483 4.446v1.038h-1.25c-.456 0-.696.411-.696.846v1.667h1.946v10.316zM38.516 18.917c1.418 0 3.22-.29 3.964-.773.264-.17.48-.387.48-.749v-1.909c-1.057.532-2.546.967-4.203.967-1.898 0-3.147-.99-3.147-2.996h6.654c.72 0 1.2-.338 1.2-1.16v-1.304c0-2.416-.984-5.364-5.092-5.364-4.276 0-5.549 2.827-5.549 6.596 0 4.034 1.393 6.692 5.693 6.692zm-2.858-7.804c.024-1.956.913-3.02 2.57-3.02 1.513 0 2.498.822 2.498 2.803v.217h-5.068zM49.982 18.917c1.033 0 1.802-.097 2.45-.338a.741.741 0 0 0 .505-.725v-1.86c-.505.217-.985.386-2.018.386-1.201 0-1.49-.58-1.49-1.618V8.335h1.418c.96 0 2.09-.097 2.09-.966V5.557c-.577.241-1.177.265-1.946.265h-1.562v-3.14h-2.162c-.48 0-.672.217-.672.7v2.44h-1.13c-.456 0-.696.242-.696.677v1.836h1.826v7.055c0 2.681 1.417 3.527 3.387 3.527zM55.845 23h1.73c.816 0 1.105-.048 1.417-.677l4.973-14.616c.24-.725.456-1.377.84-1.885h-1.97c-.6 0-1.153.339-1.369 1.015l-2.57 8.166-2.93-9.18h-2.307c-.264 0-.504.169-.336.652l4.06 11.838L55.845 23zM84.319 15.438c.889-1.232 1.49-2.754 1.754-4.47.072-.483-.24-.724-.697-.724h-1.73c-.12 1.184-.456 2.247-.96 3.14l-3.027-3.817c2.258-1.353 3.603-2.488 3.603-4.663 0-2.56-1.898-3.841-4.372-3.841-3.123 0-4.54 2.078-4.54 4.107 0 1.184.432 2.295 1.49 3.817-1.947 1.16-3.676 2.489-3.676 5.074 0 2.85 1.946 4.735 5.549 4.735 1.802 0 3.387-.507 4.684-1.425l.36.459c.553.725.77.918 1.586.918h2.594l-2.618-3.31zM78.914 3.141c.96 0 1.706.507 1.706 1.812 0 1.063-.601 1.594-2.427 2.681-.744-1.038-1.153-1.836-1.153-2.488 0-1.353.769-2.005 1.874-2.005zm-.985 13.288c-1.994 0-3.123-.846-3.123-2.296 0-1.304.673-2.053 2.523-3.189l3.555 4.518a4.975 4.975 0 0 1-2.955.967zM95.634 18.651h2.282c.457 0 .697-.241.697-.652v-6.861h6.462v7.513h2.282c.456 0 .697-.241.697-.652V4.107c0-1.256.12-2.15.36-2.73h-2.378c-.841 0-.961.7-.961 2.875v4.276h-6.462v-7.15h-2.306c-.433 0-.673.217-.673.7V18.65zM116.549 18.917c1.417 0 3.219-.29 3.963-.773.265-.17.481-.387.481-.749v-1.909c-1.057.532-2.546.967-4.204.967-1.898 0-3.147-.99-3.147-2.996h6.654c.721 0 1.201-.338 1.201-1.16v-1.304c0-2.416-.985-5.364-5.092-5.364-4.276 0-5.549 2.827-5.549 6.596 0 4.034 1.393 6.692 5.693 6.692zm-2.859-7.804c.024-1.956.913-3.02 2.571-3.02 1.513 0 2.498.822 2.498 2.803v.217h-5.069zM127.414 18.917c1.009 0 2.498-.459 3.147-1.208.312.822 1.177 1.208 2.042 1.208.865 0 1.585-.362 1.585-1.015V16.43a1.653 1.653 0 0 1-.48.072c-.337 0-.481-.17-.481-.58v-6.04c0-3.479-2.162-4.252-4.636-4.252-1.73 0-3.147.266-4.324.653v1.836c0 .41.288.483.649.386.816-.241 2.066-.459 3.05-.459 1.706 0 2.499.387 2.499 2.175v.507h-.865c-3.195 0-6.318.676-6.318 4.397 0 2.633 1.874 3.793 4.132 3.793zm.649-2.44c-1.25 0-2.042-.41-2.042-1.474 0-1.329.696-2.223 3.795-2.223h.649v2.948c-.601.459-1.586.749-2.402.749zM139.459 18.917c.384 0 .721-.073 1.129-.217a.72.72 0 0 0 .48-.701v-1.667c-.432.12-.744.12-1.057.12-.288 0-.744-.096-.744-1.11V.337h-2.114c-.481 0-.721.218-.721.7v14.328c0 2.391.769 3.551 3.027 3.551zM146.864 18.917c1.033 0 1.802-.097 2.451-.338a.741.741 0 0 0 .504-.725v-1.86c-.504.217-.985.386-2.018.386-1.201 0-1.489-.58-1.489-1.618V8.335h1.417c.961 0 2.09-.097 2.09-.966V5.557c-.576.241-1.177.265-1.946.265h-1.561v-3.14h-2.162c-.481 0-.673.217-.673.7v2.44h-1.129c-.456 0-.696.242-.696.677v1.836h1.825v7.055c0 2.681 1.418 3.527 3.387 3.527zM151.646 18.651h2.114c.481 0 .721-.217.721-.628v-8.89c.913-.532 1.85-.943 2.955-.943 1.249 0 1.729.822 1.729 2.344v8.117h2.234c.385 0 .601-.193.601-.604V9.833c0-2.996-1.754-4.204-4.3-4.204-1.225 0-2.402.41-3.219.942V3.092c0-1.28.12-2.174.36-2.754h-2.234c-.816 0-.961.7-.961 2.9V18.65z" fill="#fff"/>
</svg>
